# xmcd
#
# Track frame offsets:
# 150
# 12857
# 23957
# 35044
# 48094
# 58331
# 68546
# 80103
# 90118
# 99545
# 109871
# 119548
# 129530
# 141832
# 153447
# 166497
# 179117
# 191674
#
# Disc length: 2689 seconds
#
#
# Revision: 0
# Processed by: cddbd v1.5.2PL0 Copyright (c) Steve Scherf et al.
# Submitted via: FreeRIP 2.90 
#
DISCID=fa0a7f12
DTITLE=Various Artist - Good Ole Boys/ Bad Girls - Disc 1
DYEAR=1900
DGENRE=country
TTITLE0=Still - Bill Anderson
TTITLE1=King of the Road - Roger Miller
TTITLE2=Helloe Darlin' - Conway Twitty
TTITLE3=Detroit City - Bobby Bare
TTITLE4=Six Days on the Road - Dave Dudley
TTITLE5=Send Me The Pillow You Dream On - Johnny Tillotson
TTITLE6=Oh Lonesome Me - Don Gibson
TTITLE7=Hellow Walls - Faron Young
TTITLE8=Kiss An Angel Good Morning - Charley Pride
TTITLE9=The Wings of a Dove - Ferlin Huskey
TTITLE10=Fraulein - Mickey Gilley
TTITLE11=He'll Have to Go - Jim Reeves
TTITLE12=What in the World's Come Over You? - Jack Scott
TTITLE13=Okie from Muskogee - Merlie Haggard
TTITLE14=Ruby, Don't Take Your Love To Town - Kenny Rogers
TTITLE15=Amanda - Don Williams
TTITLE16=She Thinks I Still Care - George Jones
TTITLE17=On The Road Again - Willie Nelson
EXTD=
EXTT0=
EXTT1=
EXTT2=
EXTT3=
EXTT4=
EXTT5=
EXTT6=
EXTT7=
EXTT8=
EXTT9=
EXTT10=
EXTT11=
EXTT12=
EXTT13=
EXTT14=
EXTT15=
EXTT16=
EXTT17=
PLAYORDER=
